<?xml version="1.0" standalone="no"?><!DOCTYPE svg PUBLIC "-//W3C//DTD SVG 1.1//EN" "http://www.w3.org/Graphics/SVG/1.1/DTD/svg11.dtd"><svg t="1712200730080" class="icon" viewBox="0 0 1024 1024" version="1.1" xmlns="http://www.w3.org/2000/svg" p-id="1715" xmlns:xlink="http://www.w3.org/1999/xlink" width="200" height="200"><path d="M0 0h1024v1024H0z" fill="#FFFFFF" opacity=".01" p-id="1716"></path><path d="M887.466667 247.466667h-128c-21.333333 0-34.133333-17.066667-34.133334-34.133334s12.8-34.133333 34.133334-34.133333h128c17.066667 0 34.133333 12.8 34.133333 34.133333s-17.066667 34.133333-34.133333 34.133334zM588.8 332.8c-21.333333 0-34.133333-17.066667-34.133333-34.133333V128c0-17.066667 12.8-34.133333 34.133333-34.133333s34.133333 12.8 34.133333 34.133333v170.666667c-4.266667 17.066667-17.066667 34.133333-34.133333 34.133333z" fill="#333333" p-id="1717"></path><path d="M588.8 247.466667h-469.333333c-21.333333 0-34.133333-17.066667-34.133334-34.133334s12.8-34.133333 34.133334-34.133333h469.333333c17.066667 0 34.133333 12.8 34.133333 34.133333s-17.066667 34.133333-34.133333 34.133334zM290.133333 546.133333h-170.666666c-21.333333 0-34.133333-17.066667-34.133334-34.133333s12.8-34.133333 34.133334-34.133333h170.666666c17.066667 0 34.133333 12.8 34.133334 34.133333s-17.066667 34.133333-34.133334 34.133333zM460.8 631.466667c-17.066667 0-34.133333-12.8-34.133333-34.133334v-170.666666c0-17.066667 12.8-34.133333 34.133333-34.133334s34.133333 12.8 34.133333 34.133334v170.666666c-4.266667 17.066667-17.066667 34.133333-34.133333 34.133334z" fill="#333333" p-id="1718"></path><path d="M930.133333 546.133333h-469.333333c-17.066667 0-34.133333-12.8-34.133333-34.133333s12.8-34.133333 34.133333-34.133333h469.333333c17.066667 0 34.133333 12.8 34.133334 34.133333s-17.066667 34.133333-34.133334 34.133333zM887.466667 844.8h-128c-17.066667 0-34.133333-12.8-34.133334-34.133333s12.8-34.133333 34.133334-34.133334h128c17.066667 0 34.133333 12.8 34.133333 34.133334s-17.066667 34.133333-34.133333 34.133333zM588.8 930.133333c-17.066667 0-34.133333-12.8-34.133333-34.133333v-170.666667c0-17.066667 12.8-34.133333 34.133333-34.133333s34.133333 12.8 34.133333 34.133333v170.666667c-4.266667 17.066667-17.066667 34.133333-34.133333 34.133333z" fill="#333333" p-id="1719"></path><path d="M588.8 844.8h-469.333333c-21.333333 0-34.133333-17.066667-34.133334-34.133333s12.8-34.133333 34.133334-34.133334h469.333333c17.066667 0 34.133333 12.8 34.133333 34.133334s-17.066667 34.133333-34.133333 34.133333z" fill="#333333" p-id="1720"></path></svg>